<?xml version="1.0" standalone="no"?>
<!DOCTYPE svg PUBLIC "-//W3C//DTD SVG 20010904//EN"
 "http://www.w3.org/TR/2001/REC-SVG-20010904/DTD/svg10.dtd">
<svg version="1.0" xmlns="http://www.w3.org/2000/svg"
 width="16.000000pt" height="16.000000pt" viewBox="0 0 16.000000 16.000000"
 preserveAspectRatio="xMidYMid meet">
<metadata>
Created by potrace 1.11, written by Peter Selinger 2001-2013
</metadata>
<g transform="translate(0.000000,16.000000) scale(0.001129,-0.001129)"
fill="#000000" stroke="none">
<path d="M6795 12293 c-1295 -85 -2473 -613 -3369 -1509 -700 -699 -1177
-1565 -1400 -2539 -88 -384 -121 -695 -121 -1135 0 -440 33 -751 121 -1135
299 -1305 1059 -2419 2159 -3164 1215 -823 2715 -1090 4145 -740 200 49 586
176 770 254 471 198 924 475 1330 814 155 129 437 407 575 566 636 734 1051
1621 1210 2585 l26 155 0 665 0 665 -26 155 c-84 508 -236 986 -459 1445 -270
555 -596 1007 -1037 1440 -261 255 -478 431 -779 630 -389 257 -753 433 -1210
585 -443 148 -843 227 -1302 260 -134 9 -511 11 -633 3z"/>
<path d="M12253 7595 c0 -22 2 -30 4 -17 2 12 2 30 0 40 -3 9 -5 -1 -4 -23z"/>
<path d="M12263 7470 c0 -25 2 -35 4 -22 2 12 2 32 0 45 -2 12 -4 2 -4 -23z"/>
<path d="M12273 7260 c0 -25 2 -35 4 -22 2 12 2 32 0 45 -2 12 -4 2 -4 -23z"/>
<path d="M12273 6960 c0 -25 2 -35 4 -22 2 12 2 32 0 45 -2 12 -4 2 -4 -23z"/>
<path d="M12263 6750 c0 -25 2 -35 4 -22 2 12 2 32 0 45 -2 12 -4 2 -4 -23z"/>
<path d="M12253 6625 c0 -22 2 -30 4 -17 2 12 2 30 0 40 -3 9 -5 -1 -4 -23z"/>
</g>
</svg>
