<?xml version="1.0" encoding="utf-8"?>
<!-- Generator: Adobe Illustrator 15.1.0, SVG Export Plug-In . SVG Version: 6.00 Build 0)  -->
<!DOCTYPE svg PUBLIC "-//W3C//DTD SVG 1.1//EN" "http://www.w3.org/Graphics/SVG/1.1/DTD/svg11.dtd">
<svg version="1.1" id="Layer_1" xmlns="http://www.w3.org/2000/svg" xmlns:xlink="http://www.w3.org/1999/xlink" x="0px" y="0px"
	 width="300px" height="63.602px" viewBox="147.616 388.417 300 63.602" enable-background="new 147.616 388.417 300 63.602"
	 xml:space="preserve">
<g>
	<path fill="#1A0832" d="M219.493,431.158l23.279,0.047c0,0-4.978,17.448-26.693,17.495c-15.883,0.047-27.215-14.65-27.215-28.589
		c0-13.939,13.607-27.642,27.784-27.642s21.003,8.818,21.003,8.818l2.655-2.275c0,0-8.677-9.862-23.801-9.767
		c-14.84,0.047-31.103,13.133-31.103,31.197c0,18.064,16.262,31.577,30.628,31.577c14.745,0,29.633-10.573,30.202-24.133h-26.74
		V431.158L219.493,431.158z"/>
	<rect x="174.025" y="389.15" fill="#1A0832" width="3.319" height="62.773"/>
	<polygon fill="#1A0832" points="256,389.15 252.682,389.15 252.682,448.605 252.682,451.924 252.682,451.924 269.892,451.924 
		269.892,448.605 256,448.605 	"/>
	<polygon fill="#1A0832" points="279.754,389.15 276.435,389.15 276.435,392.469 276.435,427.886 276.435,431.205 276.435,448.605 
		276.435,451.924 276.435,451.924 293.646,451.924 293.646,448.605 279.801,448.605 279.801,431.205 293.646,431.205 
		293.646,427.886 279.801,427.886 279.754,392.469 293.646,392.469 293.646,389.15 	"/>
	<path fill="#1A0832" d="M447.498,436.041c-0.806-8.439-3.793-12.042-6.353-16.12c-2.561-4.03-8.297-11.805-8.914-16.5
		c-2.038-16.072,12.327-11.047,12.518-11l0.758-3.034c-7.301-2.418-19.344-1.375-16.452,15.646
		c0.996,5.69,6.923,12.896,9.104,16.311c1.47,2.275,5.073,6.827,5.879,14.84c1.565,15.313-14.413,11.853-14.508,11.853l-0.663,3.414
		C428.913,451.497,449.347,455.527,447.498,436.041z"/>
	<polygon fill="#1A0832" points="371.591,447.23 345.087,389.15 341.485,389.15 370.074,451.971 373.109,451.971 401.746,389.15 
		398.094,389.15 	"/>
	<polygon fill="#1A0832" points="409.19,389.15 405.823,389.15 405.823,389.15 405.823,392.469 405.823,427.886 405.823,431.205 
		405.823,448.605 405.823,451.924 409.237,451.924 423.034,451.924 423.034,448.605 409.237,448.605 409.237,431.205 
		423.034,431.205 423.034,427.886 409.237,427.886 409.19,392.469 423.034,392.469 423.034,389.15 	"/>
	<polygon fill="#1A0832" points="147.616,389.198 147.616,389.245 147.616,392.517 147.616,427.886 147.616,431.205 
		147.616,452.019 151.03,452.019 150.982,431.205 164.685,431.205 164.685,427.886 150.982,427.886 150.982,392.517 
		164.827,392.517 164.827,389.198 	"/>
	<path fill="#1A0832" d="M328.303,389.15l-28.589,62.821h3.651l9.482-20.767h34.042l9.482,20.767h3.65l-28.731-62.821H328.303z
		 M314.318,427.886l15.504-33.995l15.503,33.995H314.318z"/>
</g>
</svg>
